<svg width="144" height="25" viewBox="0 0 144 25" fill="none" xmlns="http://www.w3.org/2000/svg">
<path d="M13.1385 20.084C11.9865 22.388 9.21445 23.324 6.76645 23.324C3.59845 23.324 0.538453 21.308 0.538453 17.924C0.430453 13.784 3.45445 11.804 7.27045 11.804C8.96245 11.804 10.8705 12.236 12.4185 13.1V11.372C12.4185 6.8 4.60645 8.312 2.44645 9.392L1.87045 6.584C3.63445 5.684 5.97445 5.216 8.27845 5.216C12.4905 5.216 16.2345 6.692 16.2345 11.48V18.32C16.2345 19.94 16.1625 20.984 18.0345 20.804L18.1065 23.036C15.3705 23.504 13.2465 23.504 13.1385 20.084ZM12.4185 17.06V15.62C11.1225 14.864 9.46645 14.396 7.91845 14.432C6.01045 14.468 4.39045 15.584 4.39045 17.708C4.39045 19.436 5.97445 20.228 7.55845 20.228C9.61045 20.228 12.0225 19.256 12.4185 17.06ZM25.8763 8.168C26.5603 6.152 28.8643 5.072 30.9883 5.072C32.4283 5.036 33.8683 5.468 34.9843 6.296L34.0123 9.68C32.9683 8.996 31.8163 8.636 30.5563 8.636C28.2163 8.636 26.1283 10.148 26.1283 12.956V23H22.2403V10.4C22.2403 8.852 22.2403 8.06 20.3683 8.168L20.3323 5.504C22.8883 4.928 25.6963 5.36 25.8763 8.168ZM43.4856 0.319998V5.684H49.4976V8.492H43.4856V16.304C43.4856 20.732 46.2576 21.02 49.8216 19.76L50.2176 22.712C44.2776 24.548 39.6336 23.18 39.6336 16.376V8.492L36.1056 8.24V5.684H39.6336L40.0296 0.319998H43.4856ZM80.9127 23H76.9527V12.848C76.9887 10.256 75.9087 8.42 73.6047 8.456C71.1927 8.492 69.5727 10.22 69.5367 12.956V23H65.6847V12.956C65.6847 10.256 64.5687 8.456 62.1207 8.492C59.6727 8.528 57.9087 10.256 57.9087 12.992V23H53.9847V10.58C53.9847 8.564 53.8767 7.916 52.1487 8.024L52.1127 5.612C54.4167 5.036 57.6567 4.856 57.5487 8.492C58.5207 6.368 61.0767 5.288 63.4527 5.288C66.4767 5.288 68.0247 6.44 68.7087 8.564C69.6807 6.26 72.3807 5.288 75.0447 5.288C79.7967 5.288 81.0207 8.672 80.9127 12.848V23ZM93.7436 5.252C99.8276 5.252 102.564 9.284 101.412 15.044H88.5956C88.5956 18.212 91.0796 20.084 94.2476 20.084C96.4076 20.192 98.4956 19.904 100.548 19.004L101.052 21.92C99.0356 22.82 96.6956 23.396 94.4996 23.396C88.7756 23.504 84.5636 19.832 84.7436 13.964C84.8516 8.168 89.0276 5.252 93.7436 5.252ZM93.7076 8.276C91.1156 8.276 89.2076 9.536 88.6676 12.272H98.2436C98.3516 9.644 96.1916 8.276 93.7076 8.276ZM122.608 23H118.648V12.812C118.684 10.112 116.92 8.456 114.58 8.42C112.132 8.42 110.188 10.328 110.188 13.136V23H106.228V10.688C106.228 8.636 106.156 8.06 104.392 8.168V5.612C106.912 5.144 109.828 5 109.828 8.312C110.8 6.116 113.464 5.288 115.732 5.288C120.448 5.288 122.608 8.528 122.608 12.812V23ZM138.752 20.084C137.6 22.388 134.828 23.324 132.38 23.324C129.212 23.324 126.152 21.308 126.152 17.924C126.044 13.784 129.068 11.804 132.884 11.804C134.576 11.804 136.484 12.236 138.032 13.1V11.372C138.032 6.8 130.22 8.312 128.06 9.392L127.484 6.584C129.248 5.684 131.588 5.216 133.892 5.216C138.104 5.216 141.848 6.692 141.848 11.48V18.32C141.848 19.94 141.776 20.984 143.648 20.804L143.72 23.036C140.984 23.504 138.86 23.504 138.752 20.084ZM138.032 17.06V15.62C136.736 14.864 135.08 14.396 133.532 14.432C131.624 14.468 130.004 15.584 130.004 17.708C130.004 19.436 131.588 20.228 133.172 20.228C135.224 20.228 137.636 19.256 138.032 17.06Z" fill="#222222"/>
</svg>
