<svg width="32" height="32" viewBox="0 5 19 19" fill="none" xmlns="http://www.w3.org/2000/svg">
<path d="M13.1385 20.084C11.9865 22.388 9.21445 23.324 6.76645 23.324C3.59845 23.324 0.538453 21.308 0.538453 17.924C0.430453 13.784 3.45445 11.804 7.27045 11.804C8.96245 11.804 10.8705 12.236 12.4185 13.1V11.372C12.4185 6.8 4.60645 8.312 2.44645 9.392L1.87045 6.584C3.63445 5.684 5.97445 5.216 8.27845 5.216C12.4905 5.216 16.2345 6.692 16.2345 11.48V18.32C16.2345 19.94 16.1625 20.984 18.0345 20.804L18.1065 23.036C15.3705 23.504 13.2465 23.504 13.1385 20.084ZM12.4185 17.06V15.62C11.1225 14.864 9.46645 14.396 7.91845 14.432C6.01045 14.468 4.39045 15.584 4.39045 17.708C4.39045 19.436 5.97445 20.228 7.55845 20.228C9.61045 20.228 12.0225 19.256 12.4185 17.06Z" fill="#222222"/>
</svg>